<?xml version="1.0" encoding="utf-8"?>
<!-- Generator: Adobe Illustrator 18.1.1, SVG Export Plug-In . SVG Version: 6.00 Build 0)  -->
<!DOCTYPE svg PUBLIC "-//W3C//DTD SVG 1.1//EN" "http://www.w3.org/Graphics/SVG/1.1/DTD/svg11.dtd">
<svg version="1.1" xmlns="http://www.w3.org/2000/svg" xmlns:xlink="http://www.w3.org/1999/xlink" x="0px" y="0px"
	 viewBox="0 0 246 64" enable-background="new 0 0 246 64" xml:space="preserve">
<g id="Layer_1">
	<g id="Logo_2_">
		<g>
			<path fill="#4A4A4A" d="M11.1,40.1V28h-0.9C9,28,8,26.9,8,25.7c0-1.3,1-2.3,2.3-2.3h0.9v-3.9c0-1.4,1.2-2.6,2.7-2.6
				c1.4,0,2.6,1.2,2.6,2.6v3.9h4.1c1.3,0,2.3,1,2.3,2.3c0,1.3-1,2.3-2.3,2.3h-4.1v11.3c0,2.1,1,2.9,2.8,2.9c0.6,0,1.1-0.1,1.3-0.1
				c1.2,0,2.2,1,2.2,2.2c0,1-0.7,1.7-1.4,2c-1.1,0.4-2.2,0.6-3.6,0.6C13.9,46.9,11.1,45.2,11.1,40.1z"/>
			<path fill="#4A4A4A" d="M22.8,35.1L22.8,35.1c0-6.7,5.2-12.1,12.3-12.1c7.1,0,12.3,5.4,12.3,12V35c0,6.5-5.2,12-12.4,12
				C28,47,22.8,41.6,22.8,35.1z M42.1,35.1L42.1,35.1c0-4.1-2.9-7.5-7.1-7.5c-4.2,0-6.9,3.3-6.9,7.3V35c0,4,2.9,7.4,7,7.4
				C39.4,42.4,42.1,39,42.1,35.1z"/>
			<path fill="#4A4A4A" d="M70,44.1c0,1.4-1.2,2.6-2.7,2.6c-1.4,0-2.7-1.1-2.7-2.6v-1.2c-1.5,2.2-3.6,4.1-7.2,4.1
				c-5.2,0-8.2-3.5-8.2-8.9V25.8c0-1.5,1.2-2.7,2.6-2.7c1.5,0,2.7,1.2,2.7,2.7v10.7c0,3.6,1.8,5.6,4.9,5.6c3.1,0,5.2-2.1,5.2-5.7
				V25.8c0-1.5,1.2-2.7,2.7-2.7c1.4,0,2.7,1.2,2.7,2.7V44.1z"/>
			<path fill="#4A4A4A" d="M73.3,25.8c0-1.5,1.1-2.7,2.6-2.7c1.5,0,2.7,1.2,2.7,2.7v2.4c1.2-2.9,3.5-5.1,5.8-5.1
				c1.7,0,2.6,1.1,2.6,2.6c0,1.4-0.9,2.3-2.1,2.5c-3.8,0.7-6.3,3.5-6.3,9v6.8c0,1.4-1.2,2.6-2.7,2.6c-1.4,0-2.6-1.1-2.6-2.6V25.8z"
				/>
			<path fill="#3DB5E3" d="M87.1,35.3L87.1,35.3c0-6.5,5-11.9,11.6-11.9c3.8,0,6.3,1.4,8.3,3.3c0.3,0.2,0.5,0.7,0.5,1.2
				c0,0.9-0.7,1.6-1.6,1.6c-0.4,0-0.8-0.2-1.1-0.4c-1.6-1.5-3.4-2.7-6.2-2.7c-4.6,0-8.1,3.9-8.1,8.7v0.1c0,4.9,3.6,8.8,8.3,8.8
				c2.6,0,4.6-1.2,6.3-2.8c0.2-0.2,0.5-0.4,1-0.4c0.8,0,1.5,0.7,1.5,1.5c0,0.4-0.2,0.8-0.4,1c-2.1,2.1-4.7,3.6-8.5,3.6
				C92,47,87.1,41.6,87.1,35.3z"/>
			<path fill="#3DB5E3" d="M108.1,35.3L108.1,35.3c0-6.5,5-11.9,11.8-11.9c6.8,0,11.7,5.3,11.7,11.7v0.1c0,6.4-5,11.8-11.8,11.8
				C113,47,108.1,41.7,108.1,35.3z M128.2,35.3L128.2,35.3c0-4.9-3.6-8.9-8.4-8.9c-4.9,0-8.3,4-8.3,8.7v0.1c0,4.8,3.6,8.8,8.3,8.8
				C124.7,44,128.2,40,128.2,35.3z"/>
			<path fill="#3DB5E3" d="M134.4,25.4c0-0.9,0.7-1.7,1.7-1.7c1,0,1.7,0.7,1.7,1.7v2.4c1.5-2.4,3.8-4.4,7.7-4.4c5.5,0,8.6,3.7,8.6,9
				V45c0,1-0.7,1.7-1.7,1.7c-1,0-1.7-0.7-1.7-1.7V33.3c0-4.2-2.3-6.8-6.2-6.8c-3.9,0-6.8,2.8-6.8,7.1V45c0,1-0.7,1.7-1.7,1.7
				c-1,0-1.7-0.7-1.7-1.7V25.4z"/>
			<path fill="#3DB5E3" d="M158,25.4c0-0.9,0.7-1.7,1.7-1.7c1,0,1.7,0.7,1.7,1.7v2.4c1.5-2.4,3.8-4.4,7.7-4.4c5.5,0,8.6,3.7,8.6,9
				V45c0,1-0.7,1.7-1.7,1.7c-1,0-1.7-0.7-1.7-1.7V33.3c0-4.2-2.3-6.8-6.2-6.8c-3.9,0-6.8,2.8-6.8,7.1V45c0,1-0.7,1.7-1.7,1.7
				c-1,0-1.7-0.7-1.7-1.7V25.4z"/>
			<path fill="#3DB5E3" d="M191.5,47c-6.2,0-11.3-4.8-11.3-11.7v-0.1c0-6.5,4.6-11.7,10.8-11.7c6.7,0,10.5,5.5,10.5,11.4
				c0,0.9-0.7,1.6-1.6,1.6h-16.3c0.5,4.9,3.9,7.6,7.9,7.6c2.8,0,4.8-1.1,6.5-2.6c0.3-0.2,0.6-0.4,1-0.4c0.8,0,1.5,0.7,1.5,1.4
				c0,0.4-0.2,0.8-0.5,1.1C197.9,45.6,195.3,47,191.5,47z M198.2,33.9c-0.3-4.1-2.7-7.7-7.2-7.7c-3.9,0-6.9,3.3-7.3,7.7H198.2z"/>
			<path fill="#3DB5E3" d="M202.8,35.3L202.8,35.3c0-6.5,5-11.9,11.6-11.9c3.8,0,6.3,1.4,8.3,3.3c0.3,0.2,0.5,0.7,0.5,1.2
				c0,0.9-0.7,1.6-1.6,1.6c-0.4,0-0.8-0.2-1.1-0.4c-1.6-1.5-3.4-2.7-6.2-2.7c-4.6,0-8.1,3.9-8.1,8.7v0.1c0,4.9,3.6,8.8,8.3,8.8
				c2.6,0,4.6-1.2,6.3-2.8c0.2-0.2,0.5-0.4,1-0.4c0.8,0,1.5,0.7,1.5,1.5c0,0.4-0.2,0.8-0.4,1c-2.1,2.1-4.7,3.6-8.5,3.6
				C207.8,47,202.8,41.6,202.8,35.3z"/>
			<path fill="#3DB5E3" d="M227,40.5V26.9h-1.8c-0.8,0-1.5-0.7-1.5-1.5c0-0.8,0.7-1.5,1.5-1.5h1.8v-5.3c0-0.9,0.7-1.7,1.7-1.7
				c0.9,0,1.7,0.8,1.7,1.7v5.3h5.8c0.8,0,1.5,0.7,1.5,1.5c0,0.8-0.7,1.5-1.5,1.5h-5.8V40c0,2.8,1.5,3.8,3.8,3.8
				c1.2,0,1.8-0.3,2.1-0.3c0.8,0,1.4,0.7,1.4,1.4c0,0.6-0.4,1.1-1,1.3c-1,0.4-2,0.6-3.3,0.6C229.8,46.9,227,45.1,227,40.5z"/>
		</g>
	</g>
</g>
<g id="guides">
</g>
</svg>
